{"title":"Thor The Dark World (2013) BRRip 1080p {1920x1080p} [DD 5.1 Mult","uid":9688884,"size":3692330884,"categoryP":"video","categoryS":"hd___movies","magnet":"?xt=urn:btih:c13dedd304d337044267a9e3e5012d44d45944ab&amp;dn=Thor+The+Dark+World+%282013%29+BRRip+1080p+%7B1920x1080p%7D+%5BDD+5.1+Mult&amp;tr=udp%3A%2F%2Ftracker.openbittorrent.com%3A80&amp;tr=udp%3A%2F%2Fopen.demonii.com%3A1337&amp;tr=udp%3A%2F%2Ftracker.coppersurfer.tk%3A6969&amp;tr=udp%3A%2F%2Fexodus.desync.com%3A6969","seeders":2,"leechers":1,"uploader":"SaNRiM","files":-1,"time":1393827724,"description":"Storyline\n\nThousands of years ago, a race of beings known as Dark Elves tried to send the universe into darkness by using a weapon known as the Aether. Warriors from Asgard stop them but their leader Malekith escapes to wait for another opportunity. The warriors find the Aether and since it cannot be destroyed, they try to hide it. In the present day, Jane Foster awaits the return of Thor although it has been two years since they last saw once another. In the meantime, Thor has been trying to bring peace to the nine realms. Jane discovers an anomaly similar to the one that brought Thor to Earth. She goes to investigate, finds a wormhole, and is sucked into it. Back on Asgard, Thor wishes to return to Earth but his father, Odin refuses to let him. Thor learns from Heimdall, who can see into all of the realms, that Jane disappeared. Thor then returns to Earth just as Jane reappears. However, when some policemen try to arrest her, an unknown energy repulses them. Thor then brings Jane to Asgard to ...\n\n\n\nTorrent Info\n\nGeneral\n\nUnique ID : 212329702000945925535135185591835899023 (0x9FBD368ECFF846D3A25B96A1673D348F)\nComplete name : Thor The Dark World (2013) BRRip 1080p{1920x1080p}[5.1 Multi-Audio] [English-Hindi-Tamil-Telugu] {Hin+Eng Sub} ~SaNRiM~.mkv\nFormat : Matroska\nFormat version : Version 4 / Version 2\nFile size : 3.42 GiB\nDuration : 1h 52mn\nOverall bit rate : 4 374 Kbps\nEncoded date : UTC 2014-03-02 04:30:57\nWriting library : libebml v1.3.0 + libmatroska v1.4.1\n\n\nVideo\n\nID : 1\nFormat : AVC\nFormat/Info : Advanced Video Codec\nFormat profile : &lt;a class=&quot;__cf_email__&quot; href=&quot;/cdn-cgi/l/email-protection&quot; data-cfemail=&quot;733b1a141b333f475d42&quot;&gt;[email&amp;#160;protected]&lt;/a&gt;&lt;script cf-hash='f9e31' type=&quot;text/javascript&quot;&gt;\n/* &lt;![CDATA[ */!function(){try{var t=&quot;currentScript&quot;in document?document.currentScript:function(){for(var t=document.getElementsByTagName(&quot;script&quot;),e=t.length;e--;)if(t[e].getAttribute(&quot;cf-hash&quot;))return t[e]}();if(t&amp;&amp;t.previousSibling){var e,r,n,i,c=t.previousSibling,a=c.getAttribute(&quot;data-cfemail&quot;);if(a){for(e=&quot;&quot;,r=parseInt(a.substr(0,2),16),n=2;a.length-n;n+=2)i=parseInt(a.substr(n,2),16)^r,e+=String.fromCharCode(i);e=document.createTextNode(e),c.parentNode.replaceChild(e,c)}}}catch(u){}}();/* ]]&gt; */&lt;/script&gt;\nFormat settings, CABAC : Yes\nFormat settings, ReFrames : 4 frames\nCodec ID : V_MPEG4/ISO/AVC\nDuration : 1h 52mn\nBit rate : 2 550 Kbps\nWidth : 1 920 pixels\nHeight : 1 080 pixels\nDisplay aspect ratio : 16:9\nFrame rate mode : Constant\nFrame rate : 23.976 fps\nColor space : YUV\nChroma subsampling : 4:2:0\nBit depth : 8 bits\nScan type : Progressive\nBits/(Pixel*Frame) : 0.051\nStream size : 1.95 GiB (57%)\nTitle : ~SaNRiM~\nWriting library : x264 core 142 r2389 956c8d8\nLanguage : English\nDefault : Yes\nForced : No\n\n\nAudio #1\n\nID : 2\nFormat : AC-3\nFormat/Info : Audio Coding 3\nMode extension : CM (complete main)\nFormat settings, Endianness : Big\nCodec ID : A_AC3\nDuration : 1h 52mn\nBit rate mode : Constant\nBit rate : 448 Kbps\nChannel(s) : 6 channels\nChannel positions : Front: L C R, Side: L R, LFE\nSampling rate : 48.0 KHz\nBit depth : 16 bits\nCompression mode : Lossy\nStream size : 359 MiB (10%)\nTitle : ~SaNRiM~\nLanguage : Hindi\nDefault : Yes\nForced : No\n\n\nAudio #2\n\nID : 3\nFormat : AC-3\nFormat/Info : Audio Coding 3\nMode extension : CM (complete main)\nFormat settings, Endianness : Big\nCodec ID : A_AC3\nDuration : 1h 52mn\nBit rate mode : Constant\nBit rate : 448 Kbps\nChannel(s) : 6 channels\nChannel positions : Front: L C R, Side: L R, LFE\nSampling rate : 48.0 KHz\nBit depth : 16 bits\nCompression mode : Lossy\nStream size : 359 MiB (10%)\nTitle : ~SaNRiM~\nLanguage : Tamil\nDefault : No\nForced : No\n\n\nAudio #3\n\nID : 4\nFormat : AC-3\nFormat/Info : Audio Coding 3\nMode extension : CM (complete main)\nFormat settings, Endianness : Big\nCodec ID : A_AC3\nDuration : 1h 52mn\nBit rate mode : Constant\nBit rate : 448 Kbps\nChannel(s) : 6 channels\nChannel positions : Front: L C R, Side: L R, LFE\nSampling rate : 48.0 KHz\nBit depth : 16 bits\nCompression mode : Lossy\nStream size : 359 MiB (10%)\nTitle : ~SaNRiM~\nLanguage : Telugu\nDefault : No\nForced : No\n\n\nAudio #4\n\nID : 5\nFormat : AC-3\nFormat/Info : Audio Coding 3\nMode extension : CM (complete main)\nFormat settings, Endianness : Big\nCodec ID : A_AC3\nDuration : 1h 52mn\nBit rate mode : Constant\nBit rate : 448 Kbps\nChannel(s) : 6 channels\nChannel positions : Front: L C R, Side: L R, LFE\nSampling rate : 48.0 KHz\nBit depth : 16 bits\nCompression mode : Lossy\nStream size : 359 MiB (10%)\nTitle : ~SaNRiM~\nLanguage : English\nDefault : No\nForced : No\n\n\nText #1\n\nID : 6\nFormat : PGS\nMuxing mode : zlib\nCodec ID : S_HDMV/PGS\nCodec ID/Info : The same subtitle format used on BDs/HD-DVDs\nTitle : ~SaNRiM~\nLanguage : English\nDefault : Yes\nForced : No\n\n\nText #2\n\nID : 7\nFormat : PGS\nMuxing mode : zlib\nCodec ID : S_HDMV/PGS\nCodec ID/Info : The same subtitle format used on BDs/HD-DVDs\nTitle : ~SaNRiM~\nLanguage : Hindi\nDefault : No\nForced : No\n\n\n\nScreens\n &lt;a href=&quot;\nhttp://someimage.com/jWlLQeH&quot; rel=&quot;nofollow&quot; target=&quot;_NEW&quot;&gt;\nhttp://someimage.com/jWlLQeH&lt;/a&gt; &lt;a href=&quot;\nhttp://someimage.com/kP5v6RP&quot; rel=&quot;nofollow&quot; target=&quot;_NEW&quot;&gt;\nhttp://someimage.com/kP5v6RP&lt;/a&gt; &lt;a href=&quot;\nhttp://someimage.com/X4WhIlk&quot; rel=&quot;nofollow&quot; target=&quot;_NEW&quot;&gt;\nhttp://someimage.com/X4WhIlk&lt;/a&gt; &lt;a href=&quot;\nhttp://someimage.com/On3imJr&quot; rel=&quot;nofollow&quot; target=&quot;_NEW&quot;&gt;\nhttp://someimage.com/On3imJr&lt;/a&gt; &lt;a href=&quot;\nhttp://someimage.com/fCKtplH&quot; rel=&quot;nofollow&quot; target=&quot;_NEW&quot;&gt;\nhttp://someimage.com/fCKtplH&lt;/a&gt; &lt;a href=&quot;\nhttp://someimage.com/nx3xFVp&quot; rel=&quot;nofollow&quot; target=&quot;_NEW&quot;&gt;\nhttp://someimage.com/nx3xFVp&lt;/a&gt; &lt;a href=&quot;\nhttp://someimage.com/u26LPGw&quot; rel=&quot;nofollow&quot; target=&quot;_NEW&quot;&gt;\nhttp://someimage.com/u26LPGw&lt;/a&gt; &lt;a href=&quot;\nhttp://someimage.com/3qpPJY3&quot; rel=&quot;nofollow&quot; target=&quot;_NEW&quot;&gt;\nhttp://someimage.com/3qpPJY3&lt;/a&gt; &lt;a href=&quot;\nhttp://someimage.com/twc9FZi&quot; rel=&quot;nofollow&quot; target=&quot;_NEW&quot;&gt;\nhttp://someimage.com/twc9FZi&lt;/a&gt; &lt;a href=&quot;\nhttp://someimage.com/g2mK3uD&quot; rel=&quot;nofollow&quot; target=&quot;_NEW&quot;&gt;\nhttp://someimage.com/g2mK3uD&lt;/a&gt; &lt;a href=&quot;\nhttp://someimage.com/grjFQaf&quot; rel=&quot;nofollow&quot; target=&quot;_NEW&quot;&gt;\nhttp://someimage.com/grjFQaf&lt;/a&gt; &lt;a href=&quot;\nhttp://someimage.com/4VW9sPr&quot; rel=&quot;nofollow&quot; target=&quot;_NEW&quot;&gt;\nhttp://someimage.com/4VW9sPr&lt;/a&gt; &lt;a href=&quot;\nhttp://someimage.com/YLzcKYK&quot; rel=&quot;nofollow&quot; target=&quot;_NEW&quot;&gt;\nhttp://someimage.com/YLzcKYK&lt;/a&gt; &lt;a href=&quot;\nhttp://someimage.com/UGFKz0K&quot; rel=&quot;nofollow&quot; target=&quot;_NEW&quot;&gt;\nhttp://someimage.com/UGFKz0K&lt;/a&gt; &lt;a href=&quot;\nhttp://someimage.com/NZdjLde&quot; rel=&quot;nofollow&quot; target=&quot;_NEW&quot;&gt;\nhttp://someimage.com/NZdjLde&lt;/a&gt; &lt;a href=&quot;\nhttp://someimage.com/mjStntV&quot; rel=&quot;nofollow&quot; target=&quot;_NEW&quot;&gt;\nhttp://someimage.com/mjStntV&lt;/a&gt; &lt;a href=&quot;\nhttp://someimage.com/JjtIWC1&quot; rel=&quot;nofollow&quot; target=&quot;_NEW&quot;&gt;\nhttp://someimage.com/JjtIWC1&lt;/a&gt; &lt;a href=&quot;\nhttp://someimage.com/ehtfBdq&quot; rel=&quot;nofollow&quot; target=&quot;_NEW&quot;&gt;\nhttp://someimage.com/ehtfBdq&lt;/a&gt;\n\n\n\n                   A BIG THANKS TO GPSOFT FOR AUDIO\n\n\n\n                  If you like my work please comment\n                          Any request? Just PM me\n                       Please seed long after download\n                         Thank you &amp; enjoy the best\n                                 ~SaNRiM~","torrent":{"xt":"urn:btih:c13dedd304d337044267a9e3e5012d44d45944ab","amp;dn":"Thor+The+Dark+World+%282013%29+BRRip+1080p+%7B1920x1080p%7D+%5BDD+5.1+Mult","amp;tr":["udp%3A%2F%2Ftracker.openbittorrent.com%3A80","udp%3A%2F%2Fopen.demonii.com%3A1337","udp%3A%2F%2Ftracker.coppersurfer.tk%3A6969","udp%3A%2F%2Fexodus.desync.com%3A6969"],"infoHash":"c13dedd304d337044267a9e3e5012d44d45944ab","infoHashBuffer":{"type":"Buffer","data":[193,61,237,211,4,211,55,4,66,103,169,227,229,1,45,68,212,89,68,171]},"announce":[],"urlList":[]}}